<svg xmlns="http://www.w3.org/2000/svg" viewBox="0 0 850.39 850.39"><defs><style>.cls-1{fill:#c63318;}.cls-2{fill:#fff;}</style></defs><title>Ресурс 1</title><g id="Слой_2" data-name="Слой 2"><g id="Слой_1-2" data-name="Слой 1"><rect class="cls-1" width="850.39" height="850.39" rx="165.13"/><path class="cls-2" d="M531.68,177.17h-215A24.84,24.84,0,0,0,291.91,202V648.42a24.84,24.84,0,0,0,24.81,24.81h215a24.83,24.83,0,0,0,24.8-24.81V392.13H688.77a33.07,33.07,0,1,0,0-66.14H556.48V202a24.82,24.82,0,0,0-24.8-24.8ZM540,648.42a8.27,8.27,0,0,1-8.27,8.27h-215a8.27,8.27,0,0,1-8.27-8.27V202a8.28,8.28,0,0,1,8.27-8.27h215A8.28,8.28,0,0,1,540,202V326H523.41V226.77a16.55,16.55,0,0,0-16.53-16.53H341.52A16.54,16.54,0,0,0,325,226.77V623.62a16.55,16.55,0,0,0,16.53,16.54H506.88a16.56,16.56,0,0,0,16.53-16.54V392.13H540ZM481.27,326a65.33,65.33,0,0,0-57.07-33.08,66.15,66.15,0,0,0,0,132.29,65.32,65.32,0,0,0,57.07-33.07h25.61V623.62H341.52V226.77H506.88V326ZM424.2,392.13h37a49.09,49.09,0,0,1-37,16.53,49.61,49.61,0,1,1,0-99.21,49.1,49.1,0,0,1,37,16.54h-37a33.07,33.07,0,0,0,0,66.14Zm281.1-33.07a16.55,16.55,0,0,1-16.53,16.53H424.2a16.54,16.54,0,1,1,0-33.07H688.77a16.56,16.56,0,0,1,16.53,16.54Z"/><path class="cls-2" d="M392.37,572a8.26,8.26,0,0,0,8,10.27H450A8.27,8.27,0,0,0,458,572l-11.74-46.88a33.07,33.07,0,1,0-42.17,0Zm32.83-88.94A16.55,16.55,0,0,1,433,514.2a8.25,8.25,0,0,0-4.16,9.32l10.56,42.23H411l10.57-42.23a8.24,8.24,0,0,0-4.16-9.32,16.55,16.55,0,0,1,7.81-31.13Z"/></g></g></svg>