<svg xmlns="http://www.w3.org/2000/svg" viewBox="0 0 624.41 396.06"><defs><style>.cls-1{fill:none;stroke:#1d1d1b;stroke-miterlimit:10;stroke-width:5px;}</style></defs><title>Ресурс 5</title><g id="Слой_2" data-name="Слой 2"><g id="Слой_1-2" data-name="Слой 1"><polygon class="cls-1" points="621.91 163.44 72.38 163.44 72.38 2.5 2.5 2.5 2.5 393.56 72.38 393.56 72.38 233.32 621.91 233.32 621.91 163.44"/><polygon class="cls-1" points="187.56 195.44 175.09 195.44 175.09 163.44 152.5 163.44 152.5 233.32 175.09 233.32 175.09 219.21 187.56 219.21 187.56 195.44"/><polygon class="cls-1" points="500.74 195.44 513.21 195.44 513.21 163.44 535.79 163.44 535.79 233.32 513.21 233.32 513.21 219.21 500.74 219.21 500.74 195.44"/><rect class="cls-1" x="335.79" y="55.91" width="14.82" height="340" transform="translate(117.29 569.12) rotate(-90)"/></g></g></svg>