<svg xmlns="http://www.w3.org/2000/svg" viewBox="0 0 4291.22 898.88"><defs><style>.cls-1{fill:#fff;}</style></defs><title>logoРесурс 1</title><g id="Слой_2" data-name="Слой 2"><g id="Слой_1-2" data-name="Слой 1"><path class="cls-1" d="M2008.76,120.79l22.55,163.47q3.35,24.66,10.57,56.19,1.74,7.57,6,23.43h-75.22q0-9.51-1.22-34.53-1.59-25.19-5.3-56-3.52-29.23-8.27-64.3-1.93-14.61-3.7-29.76l-61.28,151.48-28.19,1.06-7-17.44-9.16-23.08-20.79-52.14-6.86-17.08-9.69-24.31-7.59-19L1788.93,283.2q-4,31.19-5.81,59.72c-.47,8.1-.81,15.09-1.06,21h-41.39l.88-3.7,2.11-10q2.65-11.28,7-33.3,5.26-26.05,7.74-40.68l13.39-75.22q5.13-28.18,8.46-53.89.71-4.59.88-5.82c.82-6.34,1.6-13.15,2.29-20.44h64.65l3.7,10.75q6,20.09,13.74,42.27,6.87,19.38,12,32.24l18,45.62,20.61-50.2q11.61-29.76,20.07-57.6c1.66-5.16,2.88-9.27,3.7-12.33l1.41-4.57,1.78-6.18Z"/><path class="cls-1" d="M2245.5,118.33,2311,283.56q13.74,34.33,26.06,58.3,5.11,10.56,12,22H2269.8l-1.41-7.4q-4-18.84-12.14-45.09-4.23-13.92-10.4-29.42l-2.64-6.52-5.11-.53c-4.7-.47-9.5-.75-14.45-.88h-29.41q-14.44,0-28.89,1.24Q2150.92,314,2143,338.51q-7.41,23.25-7.58,25.37h-45.62q13.73-26.25,25-50.74,4.23-9.33,12.32-28l68-162.58Zm-71.17,131.58c3.06.24,5.7.35,7.93.35h37.87c2.7,0,5.93-.11,9.69-.35h4.23l-30.13-77.15Z"/><path class="cls-1" d="M2564.85,360l-4.41,1.59q-10.72,3.87-34.18,6.52a234.24,234.24,0,0,1-28.69,1.58q-30,0-55.23-8.63t-43.42-25a112.06,112.06,0,0,1-28.45-39.81q-9.93-23.25-9.95-51.61,0-44,20.09-74.51,18.3-27.65,51.08-41.93,30.11-13.2,67.63-13.2a220.36,220.36,0,0,1,46,4.75,106.25,106.25,0,0,1,16.74,4.58l-6,32.06q-12.16-9-30.29-14.44a77.85,77.85,0,0,0-21-2.65,71.11,71.11,0,0,0-30.37,6.52A68.18,68.18,0,0,0,2450,165.19q-10.73,13.2-16.64,32.85t-5.9,44.82a173.29,173.29,0,0,0,4.39,40,104.69,104.69,0,0,0,13,32.06,67.23,67.23,0,0,0,23.34,22.63q14,8,32.5,8,12.33,0,28.19-4.23a118.8,118.8,0,0,0,21.67-8.28c1.28-.59,3.39-1.7,6.33-3.35l2.11-1.41Z"/><path class="cls-1" d="M2663.82,312.44q.55-14.26.54-28.71V145.64q-19.2,1.41-44.22,4.75-8.08,1.06-19.19,3V120.79h189.52v32.59q-21.64-4-38.73-5.81-14.29-1.23-25.2-1.93V283.73q0,23.77,1.75,54.43,1.08,16.92,1.78,25.72h-69.58Q2662.61,340.1,2663.82,312.44Z"/><path class="cls-1" d="M2840,312.44q.54-14.26.53-28.71V201.47q0-23.78-2.45-54.78c-.6-6.93-1.41-15.55-2.48-25.9h139.51v32.59a384.13,384.13,0,0,0-41.74-5.81q-13.59-1.41-30.66-2.12V221.2q25.38-.7,44.21-2.47c5.39-.47,9.81-1,13.22-1.58v32.94q-13.92-1.77-31-2.82l-26.43-1.06v37.52q0,28.36,2.29,55.84,35-1.76,55-4.93,11.28-1.77,17.25-3.36v32.6H2836.79Q2838.56,344.5,2840,312.44Z"/><path class="cls-1" d="M3111.75,236.52l4.58.18a50.6,50.6,0,0,0,14.26-1.76q12.33-3.69,19.38-12.86,9.69-12.32,9.69-34.17,0-21-10.92-33.11a34.05,34.05,0,0,0-10.91-8.2,37.17,37.17,0,0,0-12.86-3.44q-7-.34-11.1-.34h-11.81V283.73q0,23.77,2.47,54.43,1,13.74,2.64,25.72h-71q1.79-19.38,3.17-51.44c.37-9.51.53-19.08.53-28.71V201.47q0-23.78-2.45-54.78-.88-10.4-2.48-25.9h31.36q18.86,0,40.51-1.4,20.61-1.59,31.7-1.59a145.2,145.2,0,0,1,35.06,4q15.86,4,26.43,14,17.26,16.74,17.25,49.5,0,19.2-7,33.55a61.92,61.92,0,0,1-20,23.69q-12.69,9-30.39,13.39a151.25,151.25,0,0,1-39,4h-3Z"/><path class="cls-1" d="M3381.25,413.9V340.09h8.46c3.05,0,6.56-2.11,10.57-6.33q12.84-12.87,27.29-42.8A419.51,419.51,0,0,0,3453.12,224q10.9-37.7,12.67-71.69.18-2.82.18-8.28a126.9,126.9,0,0,0-1.94-23.43h157.31q-2.3,22.55-3.35,47.91-.52,13.4-.53,26.95V272.1q0,18.51,1.22,39.46,1.08,18.31,1.94,28.53h25.55V413.9h-22.91L3622,401.05q-1.92-14.82-4-21.67c-1.66-5.53-2.89-9.34-3.7-11.46q-41.58-4-80.86-4H3494q-19.2,0-43.87,1.23-12.84.69-32.93,2.64l-4.41.36a53.26,53.26,0,0,0-2.29,7,40.78,40.78,0,0,1-1.23,4.05q-2.45,7.94-4,21.85L3404,413.9Zm136.34-269.15a191.29,191.29,0,0,0-28.72,2.65,380.78,380.78,0,0,1-16.72,100.22q-16.23,53.37-43.34,92.47h123q3.34-34,3.33-62.7V195.48q0-21.49-1.41-46.85c-4.68-1.06-9.62-1.94-14.78-2.64a146.8,146.8,0,0,0-16.92-1.24Z"/><path class="cls-1" d="M3747.37,361.06a131.94,131.94,0,0,1-45-25,112.85,112.85,0,0,1-29.86-39.81Q3662,273,3662,244.63q0-43.69,20.63-74.51,18.3-27.65,51.24-41.93Q3764,115,3800.48,115q30.81,0,56.88,8.62t45.09,25A111.94,111.94,0,0,1,3932,188.35q10.29,23.16,10.3,51.7,0,43.68-20.44,74.33-18.49,27.66-51.43,42.1-30.11,13.22-66.57,13.21Q3773.35,369.69,3747.37,361.06Zm-14-78.57a106.84,106.84,0,0,0,13.57,32.42,70.33,70.33,0,0,0,22.55,22.46,56.25,56.25,0,0,0,29.76,8,65.54,65.54,0,0,0,28.72-6.6,70.14,70.14,0,0,0,24.14-19.46q11.1-13.57,17.25-33.13t6.17-44.38a162.82,162.82,0,0,0-4.68-39.81,107.77,107.77,0,0,0-13.63-32.59,66.85,66.85,0,0,0-22.47-22.28,58.08,58.08,0,0,0-30-7.84,64.5,64.5,0,0,0-28.54,6.6,71,71,0,0,0-24,19.3q-11.1,13.56-17.28,33.2t-6.17,44.47A164.58,164.58,0,0,0,3733.35,282.49Z"/><path class="cls-1" d="M4252.12,120.79l22.54,163.47q3.35,24.66,10.57,56.19,1.76,7.57,6,23.43H4216q0-9.51-1.23-34.53-1.59-25.19-5.29-56-3.52-29.23-8.28-64.3-1.94-14.61-3.7-29.76l-61.28,151.48L4108,331.82,4101,314.38l-9.15-23.08L4071,239.16l-6.87-17.08-9.69-24.31-7.58-19L4032.29,283.2q-4,31.19-5.81,59.72-.7,12.15-1.06,21H3984l.88-3.7,2.1-10q2.67-11.28,7-33.3,5.28-26.05,7.75-40.68l13.39-75.22q5.12-28.18,8.46-53.89.71-4.59.88-5.82,1.23-9.51,2.29-20.44h64.65l3.7,10.75q6,20.09,13.74,42.27,6.85,19.38,12,32.24l18,45.62,20.6-50.2q11.63-29.76,20.08-57.6,2.47-7.74,3.7-12.33l1.41-4.57,1.77-6.18Z"/><path class="cls-1" d="M1780.24,562.79c33.22,0,43,18,43,36,0,18.93-13.45,36.54-41.84,36.54-4.66,0-11.63-.16-17.44-.66v38.85a7.06,7.06,0,0,1-14.12,0V570.11a7,7,0,0,1,7-7C1764.46,563,1774.93,562.79,1780.24,562.79ZM1764,621.25c5.64.5,11.12.84,16.93.84,17.11,0,27.41-8.81,27.41-23.43,0-13.78-8.3-22.59-26.74-22.59-4.64,0-12.12.18-17.6.34Z"/><path class="cls-1" d="M1918.09,666.09a6.65,6.65,0,0,1,0,13.29h-53.82a7,7,0,0,1-7-7V570.11a7,7,0,0,1,7-7h52.16a6.64,6.64,0,0,1,0,13.28h-45V614h40a6.65,6.65,0,0,1,0,13.29h-40v38.85Z"/><path class="cls-1" d="M1975.22,576.41v97.15a7.06,7.06,0,0,1-14.12,0V570.11a7,7,0,0,1,7-7h51.32a6.64,6.64,0,0,1,0,13.28Z"/><path class="cls-1" d="M2150.41,673.56a7.05,7.05,0,0,1-14.1,0v-87l-67.6,88.85c-2.49,3.32-4.82,5.15-8.32,5.15-4.64,0-7.13-3-7.13-7.64V569.1a7.06,7.06,0,0,1,14.12,0v87l67.6-88.85c2.31-3,4.48-5,8-5,4.8,0,7.46,3,7.46,7.47Z"/><path class="cls-1" d="M2184.47,621.25c0-33.71,24.75-59.79,59.29-59.79,33.71,0,59.3,24.42,59.3,59.79,0,34.54-25.59,59.78-59.3,59.78S2184.47,656.63,2184.47,621.25Zm15,0c0,26.41,19.42,46.5,44.33,46.5,26.57,0,44.34-20.26,44.34-46.5,0-27.07-19.42-46.5-44.34-46.5C2218.52,574.75,2199.43,594.18,2199.43,621.25Z"/><path class="cls-1" d="M2422.28,562.3a7,7,0,0,1,7,6.8V673.56a7.06,7.06,0,0,1-14.11,0V626.74h-63.94v46.82a7.06,7.06,0,0,1-14.12,0V569.1a7.06,7.06,0,0,1,14.12,0v44.35h63.94V569.1A7,7,0,0,1,2422.28,562.3Z"/><path class="cls-1" d="M2538,644.17h-53l-13.29,31.72c-1.49,3.65-3.66,4.65-6.32,4.65a6.32,6.32,0,0,1-6.64-6.48,9.63,9.63,0,0,1,.66-3L2504,567.94c1.5-3.32,4.15-5.64,8.14-5.64s6.64,2.49,8,5.64l44.34,102.64a8.24,8.24,0,0,1,.51,2.82c0,3.65-2.5,7.14-6.81,7.14a7.14,7.14,0,0,1-6.64-4.65Zm-26.39-62.94-20.93,49.65h41.84Z"/><path class="cls-1" d="M2671.59,680.54a7,7,0,0,1-7.15-6.8V576.41h-42.19l-2,21.92c-6.16,66.11-18.28,82.21-35.71,82.21a27.94,27.94,0,0,1-3.66-.16c-3.64-.5-6.48-3-6.48-6.82v-1a6.8,6.8,0,0,1,7.15-6.15h1.66c7.32,0,19.27-12.61,24.08-80l1.16-16.45a7.41,7.41,0,0,1,7.32-6.8h56a7,7,0,0,1,6.8,6.8V673.74A7,7,0,0,1,2671.59,680.54Z"/><path class="cls-1" d="M2728.7,679.38a6.91,6.91,0,0,1-7-7V569.1a7.07,7.07,0,0,1,14.13,0v37.21c6.29-.51,12.44-.83,16.27-.83,30.06,0,43.84,13.95,43.84,35.87,0,24.42-17.27,38.36-47,38.36C2742,679.71,2734.69,679.54,2728.7,679.38Zm7.16-13.45c4.47.16,9.46.49,14.77.49,19.09,0,30.4-8,30.4-24.74,0-15.12-11.14-22.92-29.91-22.92a143.29,143.29,0,0,0-15.26,1Z"/><path class="cls-1" d="M2915.2,562.3a7,7,0,0,1,7,6.8V673.56a7.07,7.07,0,0,1-14.13,0V626.74h-63.93v46.82a7.07,7.07,0,0,1-14.13,0V569.1a7.07,7.07,0,0,1,14.13,0v44.35h63.93V569.1A7,7,0,0,1,2915.2,562.3Z"/><path class="cls-1" d="M3031,644.17h-53l-13.29,31.72c-1.51,3.65-3.66,4.65-6.31,4.65a6.32,6.32,0,0,1-6.65-6.48,9.63,9.63,0,0,1,.66-3l44.52-103.14c1.49-3.32,4.15-5.64,8.13-5.64s6.64,2.49,8,5.64l44.34,102.64a8.24,8.24,0,0,1,.51,2.82c0,3.65-2.5,7.14-6.81,7.14a7.12,7.12,0,0,1-6.64-4.65Zm-26.41-62.94-20.93,49.65h41.84Z"/><path class="cls-1" d="M3146.56,563a7.16,7.16,0,0,1,7,7.15V673.56a7.07,7.07,0,0,1-14.13,0V636.2h-21.74l-28.07,40.19c-1.67,2.49-3.82,4.15-7,4.15a5.79,5.79,0,0,1-6.13-6,7.55,7.55,0,0,1,1.49-4.33l25.9-36.53c-11.94-4.82-22.92-16-22.92-32.56,0-20.92,14-38.52,45.34-38.52C3131.94,562.63,3139.91,563,3146.56,563Zm-7.16,13.45c-3.82-.16-10.79-.5-15.78-.5-18.09,0-27.73,10.63-27.73,24.42,0,12.29,10,20.92,20.11,22.58h23.4Z"/><path class="cls-1" d="M3315,580.06c-6.48-3.48-14.12-5.31-23.58-5.31-25.25,0-43.17,18.93-43.17,46.5,0,27.73,18.41,46.5,45.33,46.5a45.62,45.62,0,0,0,24.08-6.47,7.9,7.9,0,0,1,4.15-1.17,6.24,6.24,0,0,1,5,2.32,5.25,5.25,0,0,1,1.16,3.34,7.39,7.39,0,0,1-3.17,5.64c-8.46,6-20.25,9.62-32.54,9.62-34.89,0-59-23.57-59-59.78,0-33.38,21.59-59.79,58-59.79,12.29,0,23.24,3.33,30.56,7.81a6.71,6.71,0,0,1,3.49,5.65,6,6,0,0,1-1,3.16,5.85,5.85,0,0,1-5.31,3A8.67,8.67,0,0,1,3315,580.06Z"/><path class="cls-1" d="M3418.76,666.09a6.65,6.65,0,0,1,0,13.29h-53.82a7,7,0,0,1-7-7V570.11a7,7,0,0,1,7-7h52.16a6.64,6.64,0,0,1,0,13.28h-45V614h40a6.65,6.65,0,0,1,0,13.29h-40v38.85Z"/><path class="cls-1" d="M3492.16,562.79c33.21,0,43,18,43,36,0,18.93-13.45,36.54-41.84,36.54-4.66,0-11.63-.16-17.43-.66v38.85a7.07,7.07,0,0,1-14.13,0V570.11a7,7,0,0,1,7-7C3476.38,563,3486.84,562.79,3492.16,562.79Zm-16.27,58.46c5.64.5,11.12.84,16.94.84,17.09,0,27.39-8.81,27.39-23.43,0-13.78-8.3-22.59-26.73-22.59-4.66,0-12.12.18-17.6.34Z"/><path class="cls-1" d="M3638.47,591.36c0,14.62-8.79,23.24-19.93,27.07,14.45,2.49,24.08,11.79,24.08,27.73,0,23.59-18.09,33.72-42.17,33.72-7.48,0-17.11-.17-24.26-.34a7.38,7.38,0,0,1-7-7.13V570.27a7.16,7.16,0,0,1,7-7.14c7.15-.17,17.11-.5,24.91-.5C3628.84,562.63,3638.47,575.25,3638.47,591.36ZM3583.34,614h18.6c12.29,0,22.42-6.82,22.42-19.44,0-12.12-8.15-18.6-23.58-18.6-6.16,0-13.29.34-17.44.5Zm0,52c3.82.33,11.28.66,17.93.66,17.11,0,27.24-7,27.24-21.25,0-12.3-9.64-18.94-26.41-18.94h-18.76Z"/><path class="cls-1" d="M3777.13,673.56a7.05,7.05,0,0,1-14.1,0v-87l-67.6,88.85c-2.49,3.32-4.82,5.15-8.29,5.15-4.66,0-7.16-3-7.16-7.64V569.1a7.07,7.07,0,0,1,14.13,0v87l67.59-88.85c2.31-3,4.48-5,8-5,4.81,0,7.46,3,7.46,7.47Z"/><path class="cls-1" d="M3892.91,580.06c-6.48-3.48-14.13-5.31-23.59-5.31-25.25,0-43.19,18.93-43.19,46.5,0,27.73,18.43,46.5,45.35,46.5a45.59,45.59,0,0,0,24.08-6.47,7.9,7.9,0,0,1,4.15-1.17,6.24,6.24,0,0,1,5,2.32,5.17,5.17,0,0,1,1.14,3.34,7.3,7.3,0,0,1-3.14,5.64c-8.47,6-20.26,9.62-32.54,9.62-34.9,0-59-23.57-59-59.78,0-33.38,21.6-59.79,58-59.79,12.29,0,23.24,3.33,30.56,7.81a6.69,6.69,0,0,1,3.48,5.65,6,6,0,0,1-1,3.16,5.86,5.86,0,0,1-5.32,3A8.6,8.6,0,0,1,3892.91,580.06Z"/><path class="cls-1" d="M4021.11,562.3a7,7,0,0,1,7,6.8V673.56a7.06,7.06,0,0,1-14.11,0V626.74H3950v46.82a7.07,7.07,0,0,1-14.13,0V569.1a7.07,7.07,0,0,1,14.13,0v44.35H4014V569.1A7,7,0,0,1,4021.11,562.3Z"/><path class="cls-1" d="M4136.86,644.17h-53l-13.29,31.72c-1.49,3.65-3.66,4.65-6.31,4.65a6.32,6.32,0,0,1-6.65-6.48,9.63,9.63,0,0,1,.66-3l44.51-103.14c1.5-3.32,4.15-5.64,8.14-5.64s6.64,2.49,8,5.64l44.34,102.64a8.24,8.24,0,0,1,.51,2.82c0,3.65-2.5,7.14-6.81,7.14a7.14,7.14,0,0,1-6.64-4.65Zm-26.39-62.94-20.93,49.65h41.84Z"/><path class="cls-1" d="M4252.47,563a7.16,7.16,0,0,1,7,7.15V673.56a7.07,7.07,0,0,1-14.13,0V636.2h-21.75l-28.06,40.19c-1.66,2.49-3.82,4.15-7,4.15a5.78,5.78,0,0,1-6.15-6,7.55,7.55,0,0,1,1.49-4.33l25.92-36.53c-12-4.82-22.94-16-22.94-32.56,0-20.92,14-38.52,45.34-38.52C4237.85,562.63,4245.82,563,4252.47,563Zm-7.16,13.45c-3.82-.16-10.79-.5-15.78-.5-18.09,0-27.71,10.63-27.71,24.42,0,12.29,10,20.92,20.09,22.58h23.4Z"/><path class="cls-1" d="M1757,751.23a7,7,0,0,1,7,6.8V862.49a7.06,7.06,0,0,1-14.12,0V758A7,7,0,0,1,1757,751.23Zm14.29,61.6a7.61,7.61,0,0,1-1.82-5,8.12,8.12,0,0,1,2-5.31L1815,754.87c2-2.32,4.15-3.64,6.48-3.64a5.83,5.83,0,0,1,6.15,5.64,7.9,7.9,0,0,1-2.49,5.47l-42,44.35,45,50.82a8.55,8.55,0,0,1,2.5,5.81,6.21,6.21,0,0,1-6.48,6.15c-3,0-5-1.49-7-3.82Z"/><path class="cls-1" d="M1847.49,810.17c0-33.7,24.75-59.78,59.3-59.78,33.7,0,59.29,24.41,59.29,59.78,0,34.55-25.59,59.79-59.29,59.79S1847.49,845.56,1847.49,810.17Zm15,0c0,26.41,19.42,46.51,44.34,46.51,26.57,0,44.33-20.26,44.33-46.51,0-27.06-19.42-46.5-44.33-46.5C1881.54,763.67,1862.45,783.11,1862.45,810.17Z"/><path class="cls-1" d="M2064.4,823.3c-2.31,3.16-4.8,4.48-7.46,4.48-2.49,0-5.15-1.32-7.48-4.48l-35.2-48.16v87.35a7.06,7.06,0,0,1-14.12,0V760.19c0-5.32,3.33-9,8.13-9,4.34,0,7,2.32,9.14,5.31l40.69,55.14,39-55.64c1.66-2.49,4.32-4.81,8.14-4.81a7.8,7.8,0,0,1,8.14,8V862.49a7.06,7.06,0,0,1-14.11,0V774.14Z"/><path class="cls-1" d="M2240.94,752.05a7,7,0,0,1,7,7V862.49a7.06,7.06,0,0,1-14.12,0V765.34h-63.1v97.15a7.07,7.07,0,0,1-14.13,0V759a7,7,0,0,1,7-7Z"/><path class="cls-1" d="M2356.69,833.1h-53l-13.28,31.72c-1.5,3.65-3.66,4.65-6.32,4.65a6.32,6.32,0,0,1-6.64-6.48,9.61,9.61,0,0,1,.65-3l44.52-103.14c1.49-3.32,4.15-5.64,8.14-5.64s6.64,2.49,8,5.64l44.33,102.64a8,8,0,0,1,.51,2.82c0,3.65-2.49,7.14-6.8,7.14a7.15,7.15,0,0,1-6.65-4.65Zm-26.39-63-20.93,49.66h41.84Z"/><path class="cls-1" d="M2498.36,751.23a7,7,0,0,1,7,6.8V862.49a7.05,7.05,0,0,1-14.1,0V815.66h-63.94v46.83a7.06,7.06,0,0,1-14.12,0V758a7.06,7.06,0,0,1,14.12,0v44.35h63.94V758A7,7,0,0,1,2498.36,751.23Z"/><path class="cls-1" d="M2645.67,862.49a7.05,7.05,0,0,1-14.1,0v-87L2564,864.32c-2.5,3.32-4.83,5.15-8.32,5.15-4.64,0-7.14-3-7.14-7.64V758a7.07,7.07,0,0,1,14.13,0v87l67.59-88.86c2.31-3,4.48-5,8-5,4.81,0,7.46,3,7.46,7.47Z"/><path class="cls-1" d="M2748,751.89a7.15,7.15,0,0,1,7,7.14V862.49a7.07,7.07,0,0,1-14.13,0V825.13h-21.75L2691,865.32c-1.68,2.49-3.82,4.15-7,4.15a5.79,5.79,0,0,1-6.13-6,7.52,7.52,0,0,1,1.49-4.32l25.9-36.54c-11.94-4.81-22.92-15.94-22.92-32.55,0-20.92,14-38.53,45.34-38.53C2733.36,751.55,2741.33,751.89,2748,751.89Zm-7.16,13.45c-3.82-.16-10.79-.5-15.78-.5-18.09,0-27.73,10.63-27.73,24.41,0,12.3,10,20.92,20.11,22.59h23.4Z"/><rect class="cls-1" x="1471.5" y="134.8" width="20.93" height="704.82"/><path class="cls-1" d="M1219.25,406.56q-68.68-45.8-137.11-92c-16.62-11.19-33.11-22.58-49.72-33.77q-99.51-67.06-199.06-134.07c-3.31,2.83-6.63,5.64-9.73,8.66a95.46,95.46,0,0,0-11.57,13.22c-5.85,8.31-5.9,17.1-.42,25.76a70,70,0,0,0,4.63,6.57c4.08,5,8.55,9.78,12.4,15,11.79,15.91,10.73,35.18-2.54,49.89a49.86,49.86,0,0,1-24.64,15.07,3.72,3.72,0,0,0-3,2.64c-1.1,3.32-3.69,4.93-7.12,5.05-3.71.12-7.44.05-11.16.08-.82,0-1.64.08-2.56.13,0,2.06,0,3.79,0,5.51-.05,18-12.68,30.66-30.73,30.68q-23.88,0-47.76,0h-6c0,1.6.06,3.15,0,4.68-.44,9.34-7.62,16.24-16.62,16s-15.77-7.38-15.78-16.59q0-54.26,0-108.51a18.66,18.66,0,0,1,.88-5.59,16.15,16.15,0,0,1,31.43,3.87c.16,1.94.18,3.88.27,5.89h1.57c18.09,0,36.17-.21,54.25,0a28.93,28.93,0,0,1,28,24.29c.43,2.61.49,5.28.75,8.18,3.33,0,6.61.1,9.87,0,5.17-.18,9.83.42,11.26,6.54a31.53,31.53,0,0,0,12.83-7.27c7.32-7,9.38-16.74,5.07-25.85a52.38,52.38,0,0,0-6.07-9.61c-3.76-4.85-8-9.31-11.82-14.13-9-11.41-11-24.12-6.56-37.88,3.2-9.86,9.76-17.39,17.17-24.31l8.64-8.11-22.81-15.36C736.85,81.77,678.13,42.55,619.65,3c-5.93-4-10-4-15.9.08-28.56,19.72-57.44,39-86.21,58.39Q499.11,73.9,480.66,86.32c-.15,57.88-.25,134.75.38,144.2,1.16,17.64-11.71,29.52-26.54,33.61-16.95,4.69-37.7-4.83-43.66-22.15a12.37,12.37,0,0,1-1-3.85c0-11.25,0-56.09,0-104.06q-23.14,15.59-46.27,31.19c-7.76,5.22-15.93,9.83-24.82,15.27V115H360V70.13H190v45.32h22.16c0,48.09-.2,95,.2,141.86.06,7.27-2.3,11.51-8.1,15.31q-50,32.78-99.72,66C71,361.11,37.88,384.11,4.33,406.49c-6,4-4.94,6.92-1.66,11.9q19.62,29.73,38.53,59.94c3.53,5.64,7.44,4.89,11.71,2,26.37-17.76,52.64-35.68,79-53.5,12.86-8.7,25.78-17.31,40.4-27.11V648.88c75.23,0,183.81,0,201.8,0,2.29,0,3.76-.5,5.15-2.58a53.92,53.92,0,0,1,25-20.22c2.27-.92,3-2,2.85-4.39-.2-4-.05-8-.05-12.35h-7.07c-7.07,0-14.15.05-21.22,0-6.55-.06-11.14-4.27-11.39-10.69-.22-5.27-.22-10.57,0-15.84.26-6.41,4.83-10.6,11.42-10.66,8.13-.09,16.26,0,24.39,0h3.75c-.12-6.17,3-10,8.39-12.12h21.55c5.17,2.21,8.45,5.79,8.28,12.12h5.1c7.71,0,15.42-.06,23.13,0,6.72.07,11.16,4.33,11.39,11,.18,5.06.18,10.14,0,15.2-.25,6.68-4.74,10.91-11.45,11-9.28.06-18.56,0-28.2,0,0,4.92-.07,9.63.07,14.33,0,.65.93,1.57,1.64,1.85a58.37,58.37,0,0,1,26.91,21.79,4.68,4.68,0,0,0,3.39,1.46c8,.27,16.08-.15,24,.6,21.56,2.05,39.41,20.86,40.27,42.49.5,12.55.17,25.13.22,37.69v3.68c7.86,3.26,9.36,5.54,9.36,14,0,5.07.06,10.14,0,15.21-.09,6.44-4.53,11-11,11q-26.46.12-52.91,0c-6.5,0-10.95-4.5-11.06-10.95-.09-6,0-12,0-18.06,0-4.82,2.35-8.12,6.65-10.27a3.78,3.78,0,0,0,1.83-2.68c.16-6.12.33-12.26-.08-18.36a9.36,9.36,0,0,0-3.08-5.77c-2.56-2.21-5.43-1.32-7.23,1.55-22.14,35.19-74.16,35.17-96.11-.09a4.8,4.8,0,0,0-4.76-2.61c-17.59.06-126.12.06-200.93.06V861.68c0,2.54-.6,5.29.18,7.55.88,2.56,2.58,6.16,4.66,6.77,18.57,5.47,37.09,11.54,56,15.13a459.36,459.36,0,0,0,61,7.14c22.62,1.19,45.35.27,68.07.27,89.85-7.11,166.62-43.91,194.6-53.81,34.42-12.17,68.34-26.08,103.36-36.15A448.42,448.42,0,0,1,748,792.44q0-63,0-126a28.92,28.92,0,0,1,2-10.19c8-20.42,16.25-40.72,24.19-61.15,1.51-3.88,3.47-5.26,7.71-5.19,15.74.28,31.49.23,47.23,0,3.73-.05,5.44,1.12,6.58,4.73,6.41,20.31,13.14,40.52,19.61,60.82a28.51,28.51,0,0,1,1.2,8.53q0,64.56,0,129.11A300.66,300.66,0,0,1,923,811.51c25.54,10.47,51.15,20.87,76.08,32.67,17.72,8.38,34.37,19,52.85,29.43V400.11l124.56,83.74c1.88-1.77,3-2.49,3.67-3.51q21.18-32,42.26-64.15C1225.37,411.69,1223.37,409.31,1219.25,406.56ZM599,239.6A10.83,10.83,0,0,1,609.33,233c15-.05,29.92,0,44.88,0a12.17,12.17,0,0,1,1.31.19v22.47a3.92,3.92,0,0,1-.72.23c-15.4,0-30.79,0-46.19,0a10.14,10.14,0,0,1-8.05-4.11A10.88,10.88,0,0,1,599,239.6ZM272.67,419.26c-.5,10.76-.46,21.58,0,32.34.31,6.9,1.7,13.75,2.69,20.6.49,3.4-.7,5.2-4.28,5.07-3.36-.12-6.73-.18-10.08-.38-6.18-.37-9.58-4.26-9.67-9.88-.33-19.53-.21-39.07,0-58.6,0-6.21,4.88-8.88,9.64-11.42q60.6-32.33,121.21-64.66c16.21-8.65,32.53-17.1,48.59-26,1.94-1.08,3.44-4.46,3.63-6.89a179.35,179.35,0,0,0,.14-19.54c-.14-4.22,1.11-6.2,5.73-5.86,4.9.36,9.85.08,15.66.08,0,12.61.09,24.26,0,35.91-.06,5.62-3.9,8.76-8.38,11.13-31.67,16.74-63.4,33.35-95,50.15-16.38,8.7-32.56,17.74-48.88,26.54-8.68,4.68-17.62,8.92-26.09,14C275.15,413.18,272.79,416.65,272.67,419.26Zm333.78,80c-3.94,12.46-7.49,16-20.64,16q-136.48,0-273,.1c-13.5,0-15.4,0-21-15.32-5.21-14.35-6.41-29.71-4.34-45a130.24,130.24,0,0,1,4.93-22.83c3.61-11,6.94-12.94,17.91-12.93H449.2v.05c47,0,93.92.23,140.88-.2,9-.08,12.36,5,14.57,11.59,2.44,7.34,5,15,5.36,22.61C610.79,468.72,611.24,484.12,606.45,499.28Zm49.07-183.82a3.2,3.2,0,0,1-.71.26c-15.4,0-30.79.06-46.19,0a10.22,10.22,0,0,1-8.54-4.71,10.88,10.88,0,0,1-1-11.77c2.18-4.34,5.89-6.44,10.72-6.45q21.93,0,43.86,0c.58,0,1.15.13,1.82.2Zm329.66,190c-2.5,10.7-11.52,14.62-20.78,8.77-14.74-9.31-29.53-18.45-46.72-22.61a90.73,90.73,0,0,0-53.77,3c-11.8,4.35-19.14,10.57-18.27,26,.66,11.57.06,23.2,0,34.8,0,.37-.3.74-.67,1.56H770V492.48H726.55v21H681.49a20.2,20.2,0,0,1-20.2-20.06c-.12-17.05-.27-41.35-.4-58.11a18.91,18.91,0,0,1,18.92-19h46.8v21.25h43.51V416.29H858.4c12,2.9,24.38,4.81,36,8.87,32.89,11.51,60.72,30.9,84,56.81C984.41,488.68,987.29,496.39,985.18,505.43Z"/></g></g></svg>