<svg xmlns="http://www.w3.org/2000/svg" viewBox="0 0 624.41 396.06"><defs><style>.cls-1{fill:none;stroke:#1d1d1b;stroke-miterlimit:10;stroke-width:5px;}</style></defs><title>Ресурс 4</title><g id="Слой_2" data-name="Слой 2"><g id="Слой_1-2" data-name="Слой 1"><polygon class="cls-1" points="2.5 163.44 552.03 163.44 552.03 2.5 621.91 2.5 621.91 393.56 552.03 393.56 552.03 233.32 2.5 233.32 2.5 163.44"/><polygon class="cls-1" points="436.85 195.44 449.32 195.44 449.32 163.44 471.91 163.44 471.91 233.32 449.32 233.32 449.32 219.21 436.85 219.21 436.85 195.44"/><polygon class="cls-1" points="123.68 195.44 111.21 195.44 111.21 163.44 88.62 163.44 88.62 233.32 111.21 233.32 111.21 219.21 123.68 219.21 123.68 195.44"/><rect class="cls-1" x="273.79" y="55.91" width="14.82" height="340" transform="translate(55.29 507.12) rotate(-90)"/></g></g></svg>